<?xml version="1.0" encoding="utf-8"?>
<!-- Generator: Adobe Illustrator 19.0.0, SVG Export Plug-In . SVG Version: 6.00 Build 0)  -->
<svg version="1.1" id="Capa_1" xmlns="http://www.w3.org/2000/svg" xmlns:xlink="http://www.w3.org/1999/xlink" x="0px" y="0px"
	 viewBox="-106 198.7 397.1 397.3" style="enable-background:new -106 198.7 397.1 397.3;" xml:space="preserve">
<style type="text/css">
	.st0{fill:#DD3333;}
	.st1{fill:#7E5C62;}
	.st2{fill:#9F6459;}
	.st3{fill:#739E5A;}
	.st4{fill:#D8E4E5;}
	.st5{fill:#336633;}
	.st6{fill:#648D8E;}
</style>
<g>
	<path class="st0" d="M-2,247.1l-14.9-34.4c-1.3-3-1.2-6.6,0.4-9.4c1.5-2.9,4.2-4.6,7.2-4.6h92.6c4.7,0,8.4,4.3,8.4,9.7v77.5
		c0,5.4-3.8,9.7-8.4,9.7H-9.4c-2.9,0-5.6-1.7-7.2-4.6c-1.5-2.9-1.7-6.4-0.4-9.4L-2,247.1z"/>
</g>
<g>
	<g>
		<path class="st1" d="M91.6,363.3c-4.4,0-8-4.3-8-9.7V208.4c0-5.4,3.6-9.7,8-9.7s8,4.3,8,9.7v145.2C99.6,359,96,363.3,91.6,363.3z"
			/>
	</g>
</g>
<g>
	<g>
		<path class="st2" d="M19.7,430.3c0,0.4-0.1,0.8,0,1.3C19.7,431.2,19.7,430.7,19.7,430.3z"/>
	</g>
	<g>
		<path class="st2" d="M20.1,428.1c0.1-0.3,0.2-0.7,0.3-1C20.2,427.4,20.2,427.8,20.1,428.1z"/>
	</g>
	<g>
		<path class="st3" d="M-96,572.6c-20.4,23.4-2.4,22.9,0.9,23c29.2,0.9,248.5,0,250.7,0h128c3.2,0,6.2-2.4,7.4-6
			c1.2-3.6,0.6-7.8-1.7-10.6L162.2,425.3c-0.5-0.6-1.4-0.6-1.9,0l-4.7,5.7l-14.1,17c-9.9,12-25.9,12-35.8,0l-5.1-6.2
			c-9.4-11.3-24.6-11.3-33.9,0l-14.6,17.7c-0.3,0.3-0.6,0.5-0.9,0.5h-7c-0.3,0-0.6-0.1-0.9-0.4c-2.1-2.2-12.5-22.6-22.4-33.8"/>
	</g>
	<g>
		<path class="st2" d="M20.3,434.8c-0.1-0.3-0.1-0.7-0.2-1C20.1,434.2,20.2,434.5,20.3,434.8z"/>
	</g>
</g>
<g>
	<path class="st4" d="M161.3,424.2l-52.7-63.8c-9.4-11.3-24.6-11.3-33.9,0L22,424.2c-2.4,2.9-2.9,7.1-1.7,10.6
		c11,12.5,23.3,25.2,23.3,25.2h8l15-18.2c9.4-11.3,24.6-11.3,33.9,0l6.1,7.3c9.4,11.3,24.6,11.3,33.9,0l15-18.2L161.3,424.2z"/>
</g>
<g>
	<g>
		<path class="st2" d="M20.3,430.3c0,0.4-0.1,0.8,0,1.3C20.3,431.2,20.3,430.7,20.3,430.3z"/>
	</g>
	<g>
		<path class="st2" d="M20.7,428.1c0.1-0.3,0.2-0.7,0.3-1C20.8,427.4,20.8,427.8,20.7,428.1z"/>
	</g>
	<g>
		<path class="st5" d="M-95.4,572.6c-20.4,23.4-2.4,22.9,0.9,23c29.2,0.9,248.5,0,250.7,0h128c3.2,0,6.2-2.4,7.4-6
			c1.2-3.6,0.6-7.8-1.7-10.6L162.8,425.3c-0.5-0.6-1.4-0.6-1.9,0l-4.7,5.7l-14.1,17c-9.9,12-25.9,12-35.8,0l-5.1-6.2
			c-9.4-11.3-24.6-11.3-33.9,0l-14.6,17.7c-0.3,0.3-0.6,0.5-0.9,0.5h-7c-0.3,0-0.6-0.1-0.9-0.4c-2.1-2.2-12.5-22.6-22.4-33.8"/>
	</g>
	<g>
		<path class="st2" d="M20.9,434.8c-0.1-0.3-0.1-0.7-0.2-1C20.7,434.2,20.8,434.5,20.9,434.8z"/>
	</g>
</g>
<g>
	<path class="st6" d="M161.9,424.2l-52.7-63.8c-9.4-11.3-24.6-11.3-33.9,0l-52.7,63.8c-2.4,2.9-2.9,7.1-1.7,10.6
		c11,12.5,23.3,25.2,23.3,25.2h8l15-18.2c9.4-11.3,24.6-11.3,33.9,0l6.1,7.3c9.4,11.3,24.6,11.3,33.9,0l15-18.2L161.9,424.2z"/>
</g>
</svg>
